Coordinates
version=1
nRows=65
nColumns=12
inDegrees=yes

Units are S.I. units (second, meters, Newtons, ...)
Angles are in degrees

endheader
time	SC_y	SC_z	SC_x	AC_y	AC_z	AC_x	GH_y	GH_z	GH_yy	EL_x	PS_y
       0.0              -59.21          11.02           24.8          56.24         -12.65           13.1         -44.38         -4.039         -9.809          12.51          16.82
  0.006256               -59.2          11.02           24.8          56.24         -12.65           13.1         -44.36         -4.036         -9.808          12.51          16.83
   0.01251               -59.2          11.02           24.8          56.24         -12.65           13.1         -44.34         -4.034         -9.807          12.52          16.84
   0.01877               -59.2          11.02           24.8          56.25         -12.66           13.1         -44.32         -4.031         -9.806          12.52          16.85
   0.02502               -59.2          11.02           24.8          56.25         -12.66           13.1          -44.3         -4.028         -9.804          12.52          16.86
   0.03128               -59.2          11.01           24.8          56.25         -12.66           13.1         -44.28         -4.025         -9.803          12.52          16.88
   0.03753               -59.2          11.01           24.8          56.25         -12.66           13.1         -44.25         -4.021         -9.801          12.52          16.89
   0.04379               -59.2          11.01           24.8          56.26         -12.66          13.09         -44.23         -4.018         -9.799          12.53          16.91
   0.05004               -59.2          11.01           24.8          56.26         -12.66          13.09          -44.2         -4.014         -9.798          12.53          16.92
    0.0563              -59.19           11.0           24.8          56.26         -12.66          13.09         -44.17          -4.01         -9.796          12.53          16.94
   0.06256              -59.19           11.0           24.8          56.27         -12.66          13.09         -44.13         -4.006         -9.794          12.53          16.96
   0.06881              -59.19          10.99           24.8          56.27         -12.66          13.09          -44.1         -4.001         -9.791          12.54          16.98
   0.07507              -59.19          10.99           24.8          56.27         -12.67          13.09         -44.06         -3.996         -9.789          12.54           17.0
   0.08132              -59.19          10.99           24.8          56.28         -12.67          13.08         -44.02          -3.99         -9.786          12.54          17.02
   0.08758              -59.18          10.98           24.8          56.28         -12.67          13.08         -43.98         -3.984         -9.783          12.55          17.04
   0.09383              -59.18          10.98           24.8          56.29         -12.67          13.08         -43.93         -3.978          -9.78          12.55          17.07
    0.1001              -59.18          10.97           24.8          56.29         -12.67          13.07         -43.87         -3.971         -9.777          12.55           17.1
    0.1063              -59.18          10.96           24.8           56.3         -12.68          13.07         -43.82         -3.963         -9.773          12.56          17.13
    0.1126              -59.17          10.96           24.8          56.31         -12.68          13.07         -43.76         -3.955         -9.769          12.56          17.17
    0.1189              -59.17          10.95           24.8          56.31         -12.68          13.06         -43.69         -3.946         -9.765          12.57           17.2
    0.1251              -59.16          10.94           24.8          56.32         -12.68          13.06         -43.61         -3.936          -9.76          12.58          17.25
    0.1314              -59.16          10.93           24.8          56.33         -12.69          13.05         -43.53         -3.925         -9.755          12.58          17.29
    0.1376              -59.15          10.92           24.8          56.34         -12.69          13.05         -43.44         -3.913         -9.749          12.59          17.34
    0.1439              -59.15          10.91           24.8          56.35         -12.69          13.04         -43.34         -3.899         -9.743           12.6           17.4
    0.1501              -59.14           10.9          24.81          56.36          -12.7          13.04         -43.23         -3.884         -9.735          12.61          17.46
    0.1564              -59.14          10.89          24.81          56.38          -12.7          13.03          -43.1         -3.868         -9.727          12.62          17.53
    0.1626              -59.13          10.87          24.81          56.39         -12.71          13.02         -42.96         -3.849         -9.718          12.63          17.61
    0.1689              -59.12          10.86          24.81          56.41         -12.71          13.01          -42.8         -3.828         -9.708          12.64          17.69
    0.1752              -59.11          10.84          24.81          56.43         -12.72           13.0         -42.62         -3.804         -9.697          12.65          17.79
    0.1814               -59.1          10.81          24.81          56.45         -12.73          12.99         -42.42         -3.777         -9.684          12.67           17.9
    0.1877              -59.09          10.79          24.81          56.47         -12.74          12.98         -42.19         -3.746         -9.669          12.69          18.03
    0.1939              -59.07          10.76          24.82           56.5         -12.75          12.96         -41.93         -3.711         -9.652          12.71          18.18
    0.2002              -59.05          10.73          24.82          56.53         -12.76          12.94         -41.62          -3.67         -9.632          12.74          18.35
    0.2064              -59.03          10.69          24.82          56.57         -12.78          12.92         -41.26         -3.623          -9.61          12.77          18.54
    0.2127              -59.01          10.64          24.82          56.62         -12.79           12.9         -40.85         -3.567         -9.583           12.8          18.77
    0.2189              -58.99          10.59          24.83          56.67         -12.81          12.87         -40.36         -3.501         -9.551          12.84          19.05
    0.2252              -58.95          10.53          24.83          56.73         -12.83          12.83         -39.77         -3.424         -9.514          12.89          19.37
    0.2315              -58.91          10.45          24.84           56.8         -12.86          12.79         -39.07          -3.33         -9.469          12.94          19.76
    0.2377              -58.87          10.36          24.85          56.89         -12.89          12.74         -38.23         -3.217         -9.415          13.01          20.22
     0.244              -58.81          10.25          24.85           57.0         -12.94          12.68          -37.2          -3.08         -9.349          13.09          20.79
    0.2502              -58.74          10.12          24.87          57.14         -12.99          12.61         -35.92         -2.909         -9.267           13.2           21.5
    0.2565              -58.65          9.944          24.88          57.31         -13.05          12.51         -34.33         -2.697         -9.165          13.33          22.38
    0.2627              -58.54          9.729          24.89          57.52         -13.13           12.4         -32.33          -2.43         -9.037          13.49          23.49
     0.269               -58.4          9.455          24.92          57.79         -13.23          12.25         -29.78          -2.09         -8.874          13.69           24.9
    0.2752              -58.23          9.105          24.94          58.13         -13.36          12.06         -26.52         -1.655         -8.665          13.96           26.7
    0.2815               -58.0          8.655          24.98          58.57         -13.52          11.81         -22.34         -1.097         -8.397           14.3          29.01
    0.2878               -57.7          8.081          25.02          59.14         -13.73           11.5          -17.0        -0.3842         -8.054          14.73          31.97
     0.294              -57.33          7.358          25.08          59.85         -13.99           11.1         -10.29         0.5122         -7.624          15.27          35.68
    0.3003              -56.88          6.478          25.14          60.72         -14.32          10.62         -2.101          1.605         -7.099          15.93          40.21
    0.3065              -56.36          5.458          25.22          61.72         -14.69          10.06          7.386          2.871         -6.491           16.7          45.46
    0.3128               -55.8          4.353          25.31          62.81         -15.09          9.462          17.66          4.242         -5.833          17.53          51.14
     0.319              -55.24          3.249          25.39           63.9          -15.5          8.859          27.93          5.613         -5.174          18.36          56.83
    0.3253              -54.72          2.229          25.47           64.9         -15.87          8.302          37.42          6.879         -4.566          19.13          62.08
    0.3315              -54.27          1.348          25.54          65.77         -16.19          7.822           45.6          7.972         -4.041          19.79           66.6
    0.3378               -53.9         0.6262          25.59          66.48         -16.46          7.427          52.32          8.868         -3.611          20.34          70.32
    0.3441               -53.6        0.05184          25.64          67.05         -16.67          7.114          57.66          9.581         -3.268          20.77          73.28
    0.3503              -53.37        -0.3978          25.67          67.49         -16.83          6.868          61.84          10.14           -3.0          21.11          75.59
    0.3566               -53.2        -0.7482           25.7          67.84         -16.96          6.677           65.1          10.57         -2.791          21.37          77.39
    0.3628              -53.06         -1.022          25.72           68.1         -17.06          6.528          67.64          10.91         -2.628          21.58           78.8
    0.3691              -52.95         -1.237          25.74          68.32         -17.14           6.41          69.65          11.18           -2.5          21.74          79.91
    0.3753              -52.86         -1.408          25.75          68.49          -17.2          6.317          71.24          11.39         -2.398          21.87          80.79
    0.3816              -52.79         -1.545          25.76          68.62         -17.25          6.242          72.51          11.56         -2.316          21.97          81.49
    0.3878              -52.73         -1.656          25.77          68.73         -17.29          6.181          73.54           11.7          -2.25          22.05          82.06
    0.3941              -52.69         -1.747          25.77          68.82         -17.32          6.132          74.39          11.81         -2.196          22.12          82.53
    0.4004              -52.65         -1.823          25.78          68.89         -17.35          6.091          75.09          11.91         -2.151          22.18          82.92
